<svg width="58" height="58" viewBox="0 0 58 58" fill="none" xmlns="http://www.w3.org/2000/svg">
<circle cx="29" cy="29" r="27.5" fill="#FF0A5A" stroke="white" stroke-width="3"/>
<path fill-rule="evenodd" clip-rule="evenodd" d="M34.18 17.58H24.82C21.3737 17.58 18.58 20.3738 18.58 23.82V33.18C18.58 36.6262 21.3737 39.42 24.82 39.42H34.18C37.6262 39.42 40.42 36.6262 40.42 33.18V23.82C40.42 20.3738 37.6262 17.58 34.18 17.58Z" fill="white" stroke="white" stroke-width="2" stroke-linecap="round" stroke-linejoin="round"/>
<path fill-rule="evenodd" clip-rule="evenodd" d="M29.5 33.18C26.9152 33.18 24.82 31.0848 24.82 28.5C24.82 25.9152 26.9152 23.82 29.5 23.82C32.0848 23.82 34.18 25.9152 34.18 28.5C34.18 29.7411 33.6869 30.9316 32.8092 31.8092C31.9316 32.6869 30.7411 33.18 29.5 33.18Z" stroke="#FF0A5A" stroke-width="2" stroke-linecap="round" stroke-linejoin="round"/>
<path d="M35.74 21.48C35.3092 21.48 34.96 21.8292 34.96 22.26C34.96 22.6908 35.3092 23.04 35.74 23.04C36.1708 23.04 36.52 22.6908 36.52 22.26C36.52 21.8292 36.1708 21.48 35.74 21.48Z" stroke="#FF0A5A" stroke-width="2" stroke-linecap="round"/>
</svg>
